<?xml version="1.0" encoding="UTF-8" standalone="no"?>
<!-- Created with Inkscape (http://www.inkscape.org/) -->

<svg
   xmlns:dc="http://purl.org/dc/elements/1.1/"
   xmlns:cc="http://creativecommons.org/ns#"
   xmlns:rdf="http://www.w3.org/1999/02/22-rdf-syntax-ns#"
   xmlns:svg="http://www.w3.org/2000/svg"
   xmlns="http://www.w3.org/2000/svg"
   xmlns:sodipodi="http://sodipodi.sourceforge.net/DTD/sodipodi-0.dtd"
   xmlns:inkscape="http://www.inkscape.org/namespaces/inkscape"
   width="520"
   height="520"
   viewBox="0 0 137.58333 137.58333"
   version="1.1"
   id="svg8"
   sodipodi:docname="halivert-logo-v5.svg"
   inkscape:version="0.92.4 5da689c313, 2019-01-14">
  <defs
     id="defs2" />
  <sodipodi:namedview
     id="base"
     pagecolor="#ffffff"
     bordercolor="#666666"
     borderopacity="1.0"
     inkscape:pageopacity="0.0"
     inkscape:pageshadow="2"
     inkscape:zoom="0.7"
     inkscape:cx="192.84085"
     inkscape:cy="280.54308"
     inkscape:document-units="mm"
     inkscape:current-layer="layer5"
     showgrid="false"
     inkscape:window-width="1366"
     inkscape:window-height="709"
     inkscape:window-x="0"
     inkscape:window-y="30"
     inkscape:window-maximized="1"
     units="px" />
  <metadata
     id="metadata5">
    <rdf:RDF>
      <cc:Work
         rdf:about="">
        <dc:format>image/svg+xml</dc:format>
        <dc:type
           rdf:resource="http://purl.org/dc/dcmitype/StillImage" />
        <dc:title></dc:title>
      </cc:Work>
    </rdf:RDF>
  </metadata>
  <g
     inkscape:groupmode="layer"
     id="layer5"
     inkscape:label="Background"
     transform="translate(-14.701052,-56.89714)" />
  <g
     inkscape:groupmode="layer"
     id="layer4"
     inkscape:label="ControlBorder"
     transform="translate(-14.701052,-56.89714)">
    <path
       style="fill:none;stroke:#ffffff;stroke-width:15;stroke-linecap:butt;stroke-linejoin:miter;stroke-miterlimit:4;stroke-dasharray:none;stroke-opacity:0"
       d="m 38.644536,96.977493 c 0,0 -7.55952,-13.985119 -0.37797,-24.946428 7.18155,-10.961312 17.76488,-6.803573 23.43452,0.755951 5.66965,7.559524 10.20536,14.74107 10.58334,22.300595 0.37797,7.559519 -0.37798,66.145829 -6.80357,77.107149 -6.4256,10.96131 -12.85119,15.875 -21.92262,12.09524 -9.07143,-3.77977 -12.09524,-12.09524 -12.09524,-18.89881 0,-6.80359 -2.26786,-12.09525 6.04762,-19.2768 8.31547,-7.18155 55.94047,-23.43452 55.94047,-23.43452"
       id="path4665-8"
       inkscape:connector-curvature="0" />
    <path
       style="fill:none;stroke:#ffffff;stroke-width:15;stroke-linecap:butt;stroke-linejoin:miter;stroke-miterlimit:4;stroke-dasharray:none;stroke-opacity:0"
       d="m 129.92839,154.92916 c 0,0 7.55952,13.98513 0.37797,24.94644 -7.18156,10.96131 -17.76489,6.80357 -23.43454,-0.75595 -5.66964,-7.55953 -10.205344,-14.74107 -10.583324,-22.30061 -0.37797,-7.55952 0.37798,-66.145827 6.803564,-77.107138 6.42561,-10.96132 12.8512,-15.87501 21.92263,-12.09525 9.07144,3.77977 12.09525,12.09525 12.09525,18.89882 0,6.803569 2.26785,12.095241 -6.04762,19.276788 -8.31549,7.18155 -55.940484,23.43452 -55.940484,23.43452"
       id="path4665-9-9"
       inkscape:connector-curvature="0" />
    <path
       style="fill:none;stroke:#ffffff;stroke-width:15;stroke-linecap:butt;stroke-linejoin:miter;stroke-miterlimit:4;stroke-dasharray:none;stroke-opacity:0"
       d="m 159.97712,82.437853 c 0,0 -7.55952,-13.985119 -0.37797,-24.946428 7.18154,-10.961312 17.76488,-6.803573 23.43452,0.755951 5.66964,7.559524 10.20536,14.74107 10.58333,22.300595 0.37798,7.559524 -0.37797,66.145829 -6.80357,77.107149 -6.42559,10.96131 -12.85119,15.875 -21.92262,12.09524 -9.07142,-3.77977 -12.09523,-12.09524 -12.09523,-18.89881 0,-6.80359 -2.26786,-12.09525 6.04761,-19.2768 8.31548,-7.18155 55.94048,-23.43452 55.94048,-23.43452"
       id="path4665-26"
       inkscape:connector-curvature="0" />
    <path
       style="fill:none;stroke:#ffffff;stroke-width:15;stroke-linecap:butt;stroke-linejoin:miter;stroke-miterlimit:4;stroke-dasharray:none;stroke-opacity:0"
       d="m 251.26098,140.38952 c 0,0 7.55952,13.98513 0.37797,24.94644 -7.18156,10.96131 -17.76489,6.80357 -23.43454,-0.75595 -5.66964,-7.55953 -10.20535,-14.74107 -10.58333,-22.30061 -0.37797,-7.55952 0.37798,-66.145827 6.80357,-77.107138 6.4256,-10.96132 12.85119,-15.87501 21.92262,-12.09525 9.07145,3.77977 12.09526,12.09525 12.09526,18.89882 0,6.803569 2.26785,12.095241 -6.04762,19.276792 -8.31549,7.181551 -55.94049,23.434516 -55.94049,23.434516"
       id="path4665-9-6"
       inkscape:connector-curvature="0" />
    <path
       style="fill:none;stroke:#2b0022;stroke-width:15;stroke-linecap:round;stroke-linejoin:miter;stroke-miterlimit:4;stroke-dasharray:none;stroke-opacity:1;paint-order:normal"
       d="m 37.057035,96.448442 c 0,0 -7.55952,-13.985119 -0.37797,-24.946428 7.18155,-10.961312 17.76488,-6.803573 23.43452,0.755951 5.66965,7.559524 10.20536,14.74107 10.58334,22.300595 0.37797,7.55951 -0.37798,66.14557 -6.80357,77.10689 -6.4256,10.96131 -12.85119,15.875 -21.92262,12.09524 -9.07143,-3.77977 -12.09524,-12.09524 -12.09524,-18.89881 0,-6.80359 -2.26786,-12.09525 6.04762,-19.27679 8.31547,-7.18151 55.94047,-23.43439 55.94047,-23.43439"
       id="path4665-4"
       inkscape:connector-curvature="0" />
    <path
       style="fill:none;stroke:#2b0022;stroke-width:15;stroke-linecap:round;stroke-linejoin:miter;stroke-miterlimit:4;stroke-dasharray:none;stroke-opacity:1;paint-order:normal"
       d="m 128.3409,154.39985 c 0,0 7.55952,13.98513 0.37797,24.94644 -7.18156,10.96131 -17.76489,6.80357 -23.43455,-0.75595 -5.669635,-7.55953 -10.205345,-14.74107 -10.583325,-22.30061 -0.37797,-7.55952 0.37798,-66.145568 6.803565,-77.106879 6.42561,-10.96132 12.85121,-15.87501 21.92264,-12.09525 9.07144,3.77977 12.09525,12.09525 12.09525,18.89882 0,6.803569 2.26785,12.095241 -6.04762,19.276769 -8.31549,7.1815 -55.940495,23.43438 -55.940495,23.43438"
       id="path4665-9-95"
       inkscape:connector-curvature="0" />
  </g>
  <g
     inkscape:groupmode="layer"
     id="layer2"
     inkscape:label="Shadow"
     transform="translate(-14.701052,-56.89714)">
    <path
       style="fill:none;stroke:#003333;stroke-width:5;stroke-linecap:butt;stroke-linejoin:miter;stroke-miterlimit:4;stroke-dasharray:none;stroke-opacity:1"
       d="m 38.644539,96.977479 c 0,0 -7.559522,-13.98512 -0.377975,-24.94643 7.181548,-10.96131 17.764881,-6.80357 23.434523,0.75595 5.669639,7.55953 10.205359,14.74107 10.583329,22.3006 0.37798,7.559531 -0.37797,66.145841 -6.80357,77.107161 -6.425592,10.96131 -12.851186,15.875 -21.922616,12.09524 -9.071427,-3.77977 -12.095237,-12.09524 -12.095237,-18.89881 0,-6.80359 -2.267857,-12.09525 6.047619,-19.2768 8.315476,-7.18155 55.940474,-23.43452 55.940474,-23.43452"
       id="path4665-2"
       inkscape:connector-curvature="0" />
    <path
       style="fill:none;stroke:#003333;stroke-width:5;stroke-linecap:butt;stroke-linejoin:miter;stroke-miterlimit:4;stroke-dasharray:none;stroke-opacity:1"
       d="m 129.92842,154.92916 c 0,0 7.55952,13.98513 0.37797,24.94644 -7.18156,10.96131 -17.76489,6.80357 -23.43457,-0.75595 -5.66964,-7.55953 -10.205344,-14.74107 -10.583324,-22.30061 -0.37797,-7.55952 0.37798,-66.145841 6.803564,-77.107151 6.42562,-10.96132 12.85122,-15.87501 21.92265,-12.09525 9.07145,3.77977 12.09526,12.09525 12.09526,18.89882 0,6.80357 2.26785,12.09524 -6.04762,19.276801 -8.31549,7.18155 -55.940514,23.43452 -55.940514,23.43452"
       id="path4665-9-0"
       inkscape:connector-curvature="0" />
  </g>
  <g
     inkscape:groupmode="layer"
     id="layer3"
     inkscape:label="Emerald"
     transform="translate(-14.701052,-56.89714)">
    <path
       style="fill:none;stroke:#00c0c0;stroke-width:5;stroke-linecap:butt;stroke-linejoin:miter;stroke-miterlimit:4;stroke-dasharray:none;stroke-opacity:1"
       d="m 34.940369,94.331641 c 0,0 -7.559522,-13.985118 -0.377975,-24.946427 7.181548,-10.961312 17.764881,-6.803573 23.434524,0.755951 5.669642,7.559524 10.205357,14.74107 10.583333,22.300594 0.377976,7.559521 -0.377976,66.145831 -6.80357,77.107141 -6.425597,10.96131 -12.851191,15.875 -21.922621,12.09524 -9.071427,-3.77977 -12.095237,-12.09524 -12.095237,-18.89881 0,-6.80358 -2.267857,-12.09524 6.047619,-19.27679 8.315476,-7.18155 55.940475,-23.43452 55.940475,-23.43452"
       id="path4665"
       inkscape:connector-curvature="0" />
    <path
       style="fill:none;stroke:#00c0c0;stroke-width:5;stroke-linecap:butt;stroke-linejoin:miter;stroke-miterlimit:4;stroke-dasharray:none;stroke-opacity:1"
       d="m 126.22422,152.28331 c 0,0 7.55952,13.98512 0.37797,24.94643 -7.18155,10.96131 -17.76488,6.80357 -23.43454,-0.75595 -5.669634,-7.55953 -10.205344,-14.74107 -10.583324,-22.3006 -0.37797,-7.55952 0.37798,-66.145829 6.80357,-77.107139 6.425594,-10.96132 12.851194,-15.87501 21.922624,-12.09525 9.07144,3.77977 12.09525,12.09525 12.09525,18.89882 0,6.80357 2.26785,12.09524 -6.04762,19.276789 -8.31548,7.18155 -55.940481,23.43452 -55.940481,23.43452"
       id="path4665-9"
       inkscape:connector-curvature="0" />
  </g>
</svg>
